<svg width="288" height="122" viewBox="0 0 288 122" fill="none" xmlns="http://www.w3.org/2000/svg">
<path d="M35.3665 118.958V40.9894L0.787109 49.3132V25.473L77.8921 4.59139C75.8187 5.48202 73.8344 6.45992 71.9481 7.52867C60.6478 13.9323 54.9977 22.0815 54.9977 31.9763C54.9977 43.7361 62.3774 52.6994 77.1368 58.8679C58.6866 64.8048 49.4633 74.5838 49.4633 88.205C49.4633 98.9175 55.6496 107.619 68.0275 114.311C71.3335 116.099 74.8978 117.647 78.7132 118.958H35.3665ZM127.211 88.7786C124.185 83.344 122.085 77.6868 120.925 71.8674C119.324 71.7018 117.644 71.6163 115.881 71.6163C108.962 71.6163 103.348 72.8685 99.0462 75.3711C94.7409 77.8756 92.5892 81.1638 92.5892 85.2375C92.5892 89.0796 94.6643 92.3393 98.8164 95.0165C102.967 97.6955 108.654 99.0333 115.883 99.0333C122.395 99.0333 127.657 97.9182 131.672 95.6952C130.027 93.4633 128.537 91.1583 127.211 88.7786ZM127.211 33.2214C128.319 31.2335 129.541 29.2973 130.868 27.4128C130.646 27.2435 130.416 27.0761 130.179 26.9122C126.488 24.3526 121.722 23.0701 115.881 23.0701C109.885 23.0701 105.078 24.3223 101.467 26.825C97.8528 29.3294 96.0466 32.443 96.0466 36.1676C96.0466 40.0098 97.8528 43.2125 101.467 45.7721C105.078 48.3335 109.885 49.6143 115.881 49.6143C117.739 49.6143 119.481 49.4931 121.109 49.2545C122.3 43.7433 124.338 38.3835 127.211 33.2214ZM217.702 52.3467C217.225 52.7564 216.883 53.4386 216.268 53.802C215.7 54.1208 215.609 54.0514 215.109 54.0745C214.608 54.0977 213.698 54.1885 213.244 54.1422C212.106 53.9837 212.676 53.1643 210.718 51.2762C210.422 51.0036 210.036 50.822 209.649 50.6616C209.24 50.6616 208.83 50.6848 208.42 50.6848C208.579 50.7988 208.716 50.9128 208.853 51.0036C209.717 51.709 210.49 52.4144 210.946 53.0503C211.195 53.3923 210.946 54.0282 211.219 54.3007C211.605 54.6873 212.287 54.7336 212.97 54.8921C213.151 54.9153 213.016 55.3463 213.312 55.3926C213.654 55.4835 214.427 55.211 214.608 55.2555C216.473 55.7097 216.496 55.6189 216.429 56.3937C216.382 56.7802 215.656 57.3039 215.656 58.4404C215.656 60.6919 215.679 60.0328 215.223 60.5102C215.041 60.715 215.177 60.9199 214.769 61.3295C214.541 61.5575 214.245 61.7838 213.949 61.9886H227.28V61.4204C227.28 59.2366 227.189 57.0991 227.008 55.0275C226.87 55.186 226.735 55.3232 226.553 55.4372C226.211 55.6652 225.552 55.5049 225.212 55.7792C224.758 56.1212 224.665 56.9174 224.257 57.0296C223.848 57.1668 223.757 55.7792 223.438 54.9366C223.142 54.1867 223.142 52.9808 222.733 52.0029C222.574 51.6164 221.89 51.0927 221.799 50.8879C221.662 50.6153 221.55 50.341 221.436 50.1148C220.526 50.1825 219.639 50.2519 218.728 50.3196C218.796 50.7739 219.115 51.253 219.001 51.3884C218.702 51.823 218.133 51.9602 217.702 52.3467ZM188.13 61.424V61.9922H200.073C199.664 60.8771 198.527 60.0132 197.207 60.1949C196.73 60.2626 196.434 59.9224 196.001 59.876C195.433 59.8297 194.728 60.0346 194.432 59.8297C194.136 59.6249 194.591 59.2847 193.932 59.0798C192.907 58.761 191.452 57.7831 192.43 56.4186C193.089 56.009 192.975 54.7817 192.863 53.9855C192.658 52.393 192.977 52.2113 194.523 51.2566C194.91 51.0072 195.228 50.642 195.547 50.2324C193.41 50.0952 191.27 49.8904 189.133 49.6641C188.493 53.3923 188.13 57.3289 188.13 61.424ZM200.162 63.5615H188.175C188.289 67.3822 188.698 71.0908 189.404 74.5713C193.59 74.1171 197.797 73.8214 202.006 73.6611C201.915 73.2069 201.983 72.5924 201.915 72.1827C201.801 71.3633 201.505 70.7951 201.324 69.9757C201.074 68.8161 200.255 68.3388 199.845 67.5639C199.664 67.2005 199.936 66.2903 199.755 66.0855C199.527 65.7898 199.505 65.0613 199.708 64.3559C199.799 64.062 200.048 63.8803 200.162 63.5615ZM168.248 63.5615H167.589C167.635 64.4948 167.703 65.4033 167.794 66.3135C167.794 66.1318 167.84 65.9501 167.908 65.7453C168.339 64.6534 168.271 64.4485 168.248 63.5615ZM181.099 92.8826C185.034 91.5413 188.992 90.4939 192.952 89.7209C190.905 85.7861 189.267 81.2582 188.151 76.2778C186.286 76.5058 184.398 76.7552 182.533 77.0509C182.396 77.9842 182.396 79.2115 182.147 79.6444C182.147 79.6444 181.509 80.1217 181.169 80.4637C180.85 80.8057 180.715 81.7142 180.531 82.1933C180.394 82.5567 180.168 82.489 180.236 82.8756C180.303 83.1944 180.964 83.0341 181.146 83.5132C181.442 84.2863 180.487 84.7423 180.373 85.4477C180.282 86.1299 181.055 87.0401 181.488 87.5852C181.646 87.79 181.716 88.6771 181.988 88.9265C182.808 89.6764 183.49 89.7904 183.49 90.4726C184.719 93.7946 179.213 88.9033 178.44 88.2656C178.054 87.9931 177.781 86.65 177.325 85.6044C177.188 85.2624 176.71 85.3764 176.62 85.0131C176.415 84.2845 176.187 83.6254 176.187 83.1712C176.187 81.5556 175.3 81.7605 174.913 80.7594C174.776 80.4174 174.299 79.7138 174.459 79.0761C174.527 78.7573 174.664 78.6219 174.687 78.4171C173.527 78.6451 172.389 78.8945 171.253 79.1456C173.209 83.5364 175.87 87.5175 179.078 90.9054C179.735 91.5859 180.396 92.2467 181.099 92.8826ZM198.502 36.9923C198.502 36.7875 198.821 36.0821 198.935 35.9681L199.277 35.6261C199.505 35.3981 199.687 35.0347 199.959 34.7622C198.071 34.5574 196.16 34.2848 194.272 33.966C192.156 38.0379 190.496 42.8384 189.427 48.1144C191.839 48.3638 194.249 48.5918 196.66 48.7521C197.184 48.1145 197.82 47.6139 198.753 47.6139C199.322 47.6139 200.118 48.0236 200.732 48.2053C201.757 48.4778 202.53 48.615 202.849 49.0478H202.872C203.691 48.843 204.509 48.9107 205.284 49.0941C206.08 49.1173 206.876 49.1173 207.672 49.1173C207.558 49.0033 207.423 48.9356 207.353 48.9356C206.99 48.9125 208.173 48.4119 208.036 48.1625C207.535 47.1846 207.945 47.4803 208.036 47.1383C208.217 46.5238 208.059 46.7518 206.648 46.205C206.466 46.1373 206.762 45.4996 206.534 45.4319C206.375 45.3856 206.08 45.6813 205.896 45.6367C205.896 45.6367 205.032 46.3653 204.781 46.3866C204.348 46.4098 204.327 45.6581 204.053 45.3856C203.871 45.2271 204.053 44.4985 203.962 44.2705C203.757 43.7023 203.461 43.6328 203.324 43.9517C203.256 44.1565 203.052 45.6349 203.256 46.5683C203.37 47.092 203.962 47.1152 203.916 47.4554C203.869 47.7974 203.052 47.6139 202.938 47.5462C202.688 47.4554 202.688 46.7963 202.551 46.2958C202.46 46.0233 202.232 45.9093 202.097 45.6367C201.778 45.0222 201.142 44.682 201.073 44.7942C200.914 45.1362 200.777 45.9324 200.323 46.1818C199.913 46.3866 199.208 46.0678 198.798 46.2726C197.957 46.75 197.32 47.3414 196.842 46.5452C196.57 46.1123 197.161 45.4996 196.774 45.1344C196.774 44.0888 195.773 42.8598 196.66 42.1544C196.956 41.905 197.752 41.791 198.593 41.7215C199.026 41.6984 199.457 41.4259 199.867 41.6984C200.162 41.8801 199.82 40.2431 200.321 40.0383C201.117 39.6749 202.414 39.8797 202.777 39.6054C202.891 39.5146 202.232 38.9909 203.392 38.7629C204.347 38.5812 205.371 38.3995 205.371 38.3995C206.668 38.2178 207.622 37.3985 207.417 35.2378H206.826C206.689 35.3055 206.507 35.3963 206.302 35.5335C205.757 35.8755 205.802 36.7394 205.143 36.9211C204.642 37.0582 204.528 36.4669 203.983 36.3529C203.641 36.262 202.777 36.6717 202.619 36.6022C202.323 36.4651 202.437 35.806 202.777 35.0329C202.254 34.9866 201.732 34.9421 201.208 34.8958C201.299 35.0098 201.39 35.1238 201.413 35.2823C201.459 35.6689 201.459 35.6457 201.413 35.9645C201.322 36.6468 200.959 37.785 200.435 38.0807C199.753 38.4672 197.932 38.7629 197.25 38.2855C197.138 37.8331 198.502 37.2649 198.502 36.9923ZM184.217 71.2048C184.035 72.1827 183.216 72.5692 183.125 73.5471C183.078 73.98 183.057 74.7762 182.943 75.389C184.58 75.161 186.219 74.9347 187.834 74.7513C187.152 71.203 186.719 67.4499 186.605 63.5597H181.874C181.988 63.8554 182.056 63.9925 182.398 64.0139C182.875 64.0602 184.104 63.7645 184.831 64.2187C186.037 64.9686 184.764 68.3815 184.764 69.7014C184.149 69.5874 184.764 70.0203 184.626 70.2251C184.354 70.5671 184.308 70.7951 184.217 71.2048ZM236.286 29.0301C237.993 28.4388 239.699 27.8242 241.404 27.142C236.694 24.9814 231.532 23.2749 226.026 22.0922C229.712 23.8895 233.123 26.2318 236.126 29.0301C236.172 29.0301 236.242 29.0301 236.286 29.0301ZM248.343 63.5615H247.205C247.524 63.72 247.911 63.9248 248.32 64.062L248.343 63.5615ZM248.388 61.9922H242.065C242.519 61.538 242.065 60.0809 242.747 60.7417C243.52 61.5148 243.429 59.0121 242.838 58.2622C241.951 57.1703 241.927 58.5579 241.291 59.4913C241.042 59.8547 240.404 60.2644 239.881 60.4247C238.516 60.8344 238.857 62.3591 237.424 60.9252C237.175 60.6758 236.242 60.5155 235.923 59.8796C235.49 58.9694 235.673 57.5586 235.308 57.3769C234.626 57.0581 234.375 57.6958 233.967 58.0592C233.466 58.5134 232.989 58.8785 233.694 59.7656C234.309 60.5155 235.082 61.2672 235.515 61.9957H228.849V61.4275C228.849 57.7421 228.577 54.1475 228.053 50.7365C228.303 50.6688 228.735 50.5085 229.304 49.5769L229.485 49.2812L229.94 49.2349C229.986 49.3489 230.054 49.5074 230.121 49.7122C230.258 50.0542 230.235 50.8718 230.576 51.2815C230.734 51.4864 231.714 51.8497 232.031 52.2594C232.417 52.8063 233.146 53.0325 233.395 53.6007C233.714 54.3061 233.6 55.3071 234.282 55.7382C234.715 56.0339 234.897 55.3748 235.42 54.8743C235.83 54.5109 237.376 55.2377 237.809 54.7158C237.991 54.4878 237.695 53.2373 237.786 52.8953C237.968 52.2808 238.719 52.849 239.174 52.9185C239.924 53.0093 239.719 52.9648 240.447 52.532C240.584 52.4643 241.039 52.7813 241.106 52.6905C241.311 52.4179 240.925 51.6663 241.243 51.0304C241.402 50.667 240.901 50.0756 240.901 49.7799C240.948 49.1422 241.856 49.7336 241.879 49.2562C241.926 48.7094 241.402 48.1875 241.334 47.6175C241.311 47.5266 241.311 47.4358 241.311 47.345C242.54 47.117 243.767 46.8444 245.02 46.5719C245.066 47.3913 245.043 48.2783 244.861 48.5972C244.679 48.916 243.427 50.0524 243.723 50.5316C244.065 51.0553 244.724 51.0767 245.315 51.4418C245.543 51.579 245.953 52.5569 246.112 52.7831C246.544 53.4885 246.27 53.6256 246.794 52.7831C247.022 52.3966 246.726 51.6912 246.544 50.9627C246.407 50.4853 246.295 49.9848 246.454 49.6214C246.5 49.4842 246.568 49.3257 246.658 49.1672C247.773 53.0343 248.388 57.1525 248.388 61.4275C248.388 61.6056 248.388 61.8105 248.388 61.9922ZM239.767 58.6933L239.585 57.5337H238.516L238.653 58.7165L239.767 58.6933ZM241.201 57.8062L241.133 55.9413L239.883 56.351L240.178 57.238L240.611 57.8971L241.201 57.8062ZM241.746 54.8725L243.315 55.031L243.634 53.5526L243.156 52.8704L242.474 52.9844L242.497 53.5081L242.225 53.9623L241.746 54.8725ZM243.997 55.4853L242.542 55.2804L241.997 55.7578L242.088 56.554L242.816 56.782L243.522 56.6003L243.997 55.4853ZM220.545 48.6168L220.795 48.5936C220.659 48.3424 220.659 48.4119 220.545 48.6168ZM241.678 45.6813C242.747 45.4764 243.816 45.2484 244.907 44.999C244.931 44.885 244.998 44.771 245.066 44.657C244.065 42.2239 242.836 39.926 241.427 37.7422C241.085 37.9471 241.017 38.2428 241.609 39.1761C241.723 39.3578 242.246 39.7444 242.382 39.9724C242.472 40.1095 242.724 40.6314 243.019 41.5648C243.087 41.7696 243.816 42.2239 243.816 42.4982C243.769 42.8402 244.065 43.6364 243.611 43.9321C243.042 44.2955 242.246 43.2035 241.881 43.7949C241.653 44.1814 241.813 45.0008 241.723 45.5014C241.701 45.5673 241.701 45.6367 241.678 45.6813ZM211.538 73.6166C211.628 73.2532 211.628 72.8667 211.514 72.5247C211.377 72.2058 210.877 72.1613 210.65 71.887C210.446 71.6376 210.469 71.1371 210.536 70.8628C210.65 70.3623 211.47 70.6811 211.947 70.2946C212.471 69.8617 212.448 68.7698 213.107 68.1108C213.493 67.7242 213.402 66.8372 213.198 65.813C213.039 65.0844 213.039 64.1297 212.948 63.5615H227.257C227.143 67.3822 226.712 71.0676 226.028 74.5713C221.204 74.0477 216.359 73.7288 211.538 73.6166ZM214.313 69.68C214.359 70.0434 214.881 70.2714 215.063 70.6134C215.221 70.9091 215.016 71.7516 215.016 72.0242C215.016 72.5247 215.175 72.4107 215.47 72.2522C216.017 71.9333 216.22 71.5931 216.562 71.0926C216.767 70.7969 217.2 70.4335 217.268 70.0684C217.335 69.7264 217.131 69.2953 217.131 68.9301C217.131 68.6808 217.131 68.1339 216.721 67.9968C216.062 67.7919 215.061 67.6779 215.038 68.2248C214.608 68.9978 214.222 69.0655 214.313 69.68ZM236.854 90.9036C238.401 89.2435 239.834 87.4694 241.108 85.5813C240.016 85.7861 241.062 84.2168 239.653 82.8292C239.289 82.4872 238.947 82.9878 238.789 82.7152C238.288 81.805 238.835 80.2126 238.379 79.9169C238.016 79.6675 238.311 79.0744 236.218 80.2589C235.173 80.8503 235.422 80.8734 234.877 80.8966C234.127 80.9197 233.012 81.0106 232.375 80.8966C231.259 80.7149 231.329 79.7815 231.397 78.6219C231.42 78.1677 231.92 77.3715 231.943 76.8923C230.374 76.6643 228.826 76.4595 227.257 76.2778C226.211 81.0996 224.64 85.4904 222.685 89.3343C226.894 90.0397 231.101 91.0639 235.333 92.4284C235.855 91.9278 236.354 91.4273 236.854 90.9036ZM240.426 69.6587C239.788 69.5678 239.653 69.8635 239.288 70.136C238.559 70.6811 237.081 71.4328 235.763 72.1827C235.535 72.3199 233.921 72.5461 233.01 73.2283C232.214 73.8197 231.373 74.639 231.281 75.2073C230.052 75.0487 228.825 74.8884 227.595 74.7299C228.278 71.1816 228.711 67.4499 228.825 63.5615H246.022C245.68 64.2205 246.842 65.9946 247.433 65.813C247.706 65.8806 247.934 65.9946 248.139 66.1086C248.001 67.3822 247.82 68.6113 247.594 69.8172C246.502 70.136 245.182 70.9768 245 71.0676C244.704 71.2262 244.295 69.6337 244.25 69.2027C244.113 68.1571 242.635 68.6344 241.771 69.68C241.473 70.0452 240.631 69.68 240.426 69.6587ZM241.178 66.4738C241.541 66.4738 241.883 66.6555 242.316 66.7018C242.884 66.7695 244.386 65.8593 244.227 65.4727C243.954 64.7674 244.045 64.6765 243.431 64.3345C242.453 63.7663 242.407 64.4717 241.862 64.7887C241.475 64.9936 239.223 66.472 240.497 66.472H241.178V66.4738ZM208.83 88.1748C212.902 88.1748 216.974 88.4705 221.046 89.085C223.048 85.3087 224.64 80.918 225.709 76.0961C220.478 75.551 215.267 75.2322 210.059 75.1627C209.626 75.5724 209.149 76.4826 208.648 76.96C208.443 77.1649 207.715 77.2094 207.375 77.4606C206.807 77.8934 206.579 78.4848 206.306 78.5061C205.305 78.6201 205.123 77.7099 204.441 76.5503C204.145 76.0053 203.577 75.6401 203.053 75.209C198.618 75.323 194.16 75.6419 189.723 76.1193C190.838 81.0551 192.475 85.5599 194.544 89.427C199.299 88.5844 204.053 88.1748 208.83 88.1748ZM141.223 78.597C141.085 78.4598 140.927 78.369 140.745 78.3476C140.587 78.3245 140.382 78.3476 140.177 78.4385C139.949 78.5525 139.814 78.6878 139.723 78.8713C139.632 79.0761 139.632 79.281 139.7 79.509C139.723 79.6461 139.881 79.9632 140.133 80.5332L140.633 81.5788L142.339 80.7826L141.885 79.7815C141.565 79.1207 141.36 78.7341 141.223 78.597ZM207.806 7.89739L206.851 10.6726L208.876 10.6494L207.806 7.89739ZM198.344 9.80867C199.072 9.76236 199.527 9.69468 199.685 9.60383C199.867 9.53615 200.004 9.42214 200.095 9.26182C200.162 9.10329 200.209 8.91982 200.186 8.69361C200.162 8.44423 200.072 8.2394 199.936 8.10224C199.799 7.96508 199.594 7.87424 199.345 7.85286C199.231 7.85286 198.867 7.87602 198.253 7.94371L197.07 8.03455L197.252 9.92267L198.344 9.80867ZM143.271 37.402L145.022 39.7907L146.16 38.1074L143.271 37.402ZM178.734 16.4955C179.235 16.7912 179.78 16.8589 180.35 16.6772C180.918 16.4955 181.327 16.1535 181.579 15.6316C181.807 15.1079 181.807 14.4257 181.555 13.6063C181.306 12.7869 180.941 12.2187 180.464 11.9462C179.986 11.6505 179.439 11.5828 178.848 11.7645C178.257 11.9462 177.847 12.3096 177.598 12.8101C177.37 13.3338 177.37 13.9928 177.621 14.8354C177.87 15.6316 178.233 16.1784 178.734 16.4955ZM175.049 76.7552C175.139 76.5735 175.207 76.4132 175.186 76.301C175.139 75.7773 174.276 75.8004 173.798 75.7559C172.934 75.6882 173.23 74.3006 172.66 74.0049C171.682 73.5275 172.297 71.162 171.978 71.0712C170.362 70.5707 170.18 70.9572 170.18 69.1368C169.838 68.7734 170.022 68.9319 169.657 68.6594C168.975 68.1589 168.041 67.4998 167.836 66.6573C168.291 70.5244 169.247 74.2098 170.635 77.6672C172.115 77.3465 173.593 77.0277 175.049 76.7552ZM217.815 9.9672C218.019 9.89952 218.178 9.80868 218.315 9.64836C218.429 9.48983 218.52 9.30636 218.52 9.08014C218.543 8.80761 218.497 8.57961 218.361 8.39792C218.203 8.19308 218.019 8.07908 217.77 8.01139C217.612 7.96508 217.246 7.92055 216.701 7.87424L215.973 7.80655L215.791 9.89952L216.61 9.99036C217.202 10.0349 217.61 10.0349 217.815 9.9672ZM248.821 17.1332L246.705 19.1584L248.525 20.0687L248.821 17.1332ZM270.885 41.5185C271.453 41.5862 272.091 41.3813 272.82 40.904C273.525 40.4266 273.958 39.926 274.093 39.3792C274.23 38.8324 274.116 38.2873 273.774 37.7868C273.432 37.2631 272.978 36.9674 272.41 36.8997C271.842 36.8089 271.204 37.0137 270.499 37.4911C269.793 37.9685 269.384 38.4921 269.225 39.0604C269.088 39.6286 269.179 40.1523 269.521 40.6528C269.863 41.1551 270.317 41.4276 270.885 41.5185ZM248.821 104.463L250.413 103.666L249.254 101.301L248.821 104.463ZM241.45 30.8274C242.61 31.0554 242.724 30.986 243.452 31.3743C244.02 31.6931 244.977 32.5125 244.544 32.9899C244.295 33.2624 243.384 33.3087 242.861 33.3087C242.474 33.3087 241.951 33.1039 241.723 33.3087C241.518 33.5367 242.2 34.1958 242.2 34.5823C242.2 35.1291 241.881 35.4925 242.018 35.8559L242.155 36.0607C242.519 36.4027 242.793 36.9033 243.315 37.0618C243.839 37.2203 244.612 37.0618 244.975 37.4946C245.476 38.086 245.704 38.7237 245.704 39.2688C245.704 39.7693 245.932 40.0881 245.794 40.3607C245.771 40.4515 245.248 40.4747 244.703 40.2021C245.452 41.636 246.136 43.0913 246.728 44.5929C251.233 43.5687 255.736 42.3414 260.264 40.9307C258.762 39.1565 257.079 37.4733 255.237 35.8808C255.123 36.7002 255.283 37.997 254.713 38.3603C253.484 39.1102 252.825 34.6981 251.915 34.3561C251.277 34.1067 250.141 35.562 249.64 33.9019C249.231 32.5143 248.162 33.1288 247.047 32.4234C245.454 31.4224 245.591 31.1498 245.112 29.0337L245.18 29.0105C244.565 28.6917 243.951 28.3729 243.315 28.0558C241.746 28.6935 240.198 29.3062 238.629 29.8762C239.222 30.2361 240.472 30.6226 241.45 30.8274ZM168.839 100.868C168.271 100.619 167.701 100.595 167.156 100.822C166.632 101.071 166.178 101.595 165.815 102.391C165.451 103.187 165.36 103.869 165.519 104.461C165.701 105.029 166.066 105.462 166.634 105.711C167.202 105.961 167.749 105.984 168.294 105.734C168.841 105.506 169.295 104.984 169.659 104.165C170.022 103.346 170.136 102.663 169.954 102.118C169.794 101.55 169.407 101.14 168.839 100.868ZM244.362 106.146C244.09 106.032 243.816 106.032 243.543 106.146C243.201 106.283 242.998 106.509 242.928 106.805C242.861 107.101 242.882 107.373 242.996 107.647C243.155 108.034 243.36 108.285 243.634 108.42C243.906 108.534 244.202 108.558 244.476 108.42C244.772 108.306 244.954 108.125 245.068 107.829C245.159 107.557 245.135 107.238 244.977 106.851C244.84 106.509 244.635 106.281 244.362 106.146ZM243.589 104.577C243.68 104.349 243.68 104.099 243.566 103.827C243.452 103.577 243.294 103.394 243.089 103.303C242.861 103.212 242.635 103.235 242.383 103.326C242.111 103.44 241.951 103.599 241.86 103.827C241.769 104.031 241.769 104.281 241.883 104.532C241.974 104.805 242.155 104.986 242.36 105.077C242.588 105.168 242.814 105.168 243.066 105.054C243.315 104.94 243.498 104.78 243.589 104.577ZM194.067 109.103C193.908 108.898 193.68 108.739 193.408 108.625C193.203 108.534 192.793 108.444 192.179 108.33L191.497 108.216L190.633 113.265L191.771 113.447C192.204 113.538 192.5 113.561 192.704 113.538C192.954 113.515 193.182 113.447 193.387 113.333C193.568 113.219 193.75 112.991 193.91 112.674C194.069 112.332 194.183 111.878 194.297 111.286C194.388 110.718 194.411 110.241 194.364 109.922C194.316 109.58 194.202 109.308 194.067 109.103ZM210.171 110.127C209.99 109.968 209.738 109.831 209.443 109.785C209.238 109.717 208.805 109.717 208.192 109.717H207.487L207.51 114.835L208.67 114.812C209.103 114.812 209.42 114.788 209.603 114.744C209.852 114.676 210.057 114.562 210.241 114.425C210.399 114.267 210.536 114.015 210.627 113.675C210.741 113.333 210.786 112.856 210.786 112.264C210.786 111.65 210.718 111.196 210.627 110.877C210.513 110.558 210.355 110.309 210.171 110.127ZM167.703 57.4874C167.975 54.5074 168.545 51.595 169.363 48.8198C169.705 48.7967 170.113 48.8875 170.522 49.2064C170.864 49.4344 170.136 49.7746 170.455 50.1843C171.092 51.0036 171.069 49.4557 171.365 50.0703C171.979 51.3902 172.161 49.4112 172.024 48.1821C171.978 47.6139 172.411 47.1134 172.411 46.9762V46.9531C177.46 48.0218 182.533 48.8644 187.583 49.4789C186.924 53.2783 186.582 57.2808 186.582 61.4222V61.9904H180.622C180.189 61.8319 179.826 61.741 179.803 60.6936C179.803 59.5109 180.008 58.7824 179.053 58.6007C178.62 58.533 177.619 58.3958 177.074 58.6007C176.732 58.7378 175.891 58.9195 175.754 58.8287C175.481 58.6238 176.14 57.8739 175.686 57.6459C175.3 57.4642 173.684 57.2594 173.388 57.2362C172.159 57.2362 172.569 58.3958 171.728 58.761C171.251 58.9658 170.636 58.4653 169.726 57.8276C169.726 57.8971 168.18 57.352 167.703 57.4874ZM173.365 53.6203C173.388 53.6666 173.524 53.7111 173.547 53.7575C173.593 53.8251 173.638 53.8251 173.661 53.9623C173.684 54.1208 174.003 54.1671 174.115 54.0531C174.206 53.9623 174.024 53.8251 174.024 53.7111C174.024 53.6648 174.071 53.574 174.048 53.5295C174.024 53.4618 173.934 53.3246 173.843 53.2801C173.57 53.1198 173.479 53.4618 173.365 53.6203ZM170.045 51.4365C170.045 51.823 170.091 51.9602 170.273 52.1419C170.432 52.3004 170.478 52.2559 170.82 52.3004C170.978 52.3235 170.797 52.7778 171.092 52.8009L171.979 52.8918C172.138 52.9149 172.117 53.5508 172.207 53.4831C172.366 53.3923 172.254 53.5063 172.64 53.5063C173.05 53.5063 173.118 53.0521 173.118 52.5515C173.118 52.051 173.367 51.6182 172.89 51.6413H172.275C171.821 51.6645 171.956 51.5736 171.411 51.5736C171.297 51.5736 171.162 50.9591 171.069 50.9146C170.932 50.8469 170.683 50.8914 170.41 50.9609C170.204 51.0268 170.318 51.3225 170.045 51.4365ZM177.938 91.9742C174.548 88.3796 171.75 84.1491 169.703 79.4858C165.382 80.4869 161.059 81.6465 156.759 82.9664C159.192 85.6739 162.06 88.1748 165.312 90.428C168.041 92.3162 171.044 94.0226 174.276 95.5242C176.005 94.7957 177.733 94.1134 179.439 93.4775C178.939 92.9966 178.438 92.4747 177.938 91.9742ZM166.018 63.5615H147.934C148.435 70.1129 151.164 76.2778 155.645 81.6679C160.127 80.2803 164.609 79.0512 169.089 78.0288C167.338 73.5258 166.246 68.6576 166.018 63.5615ZM176.233 96.3863C179.942 97.9788 183.923 99.2987 188.107 100.3C188.312 100.277 188.54 100.232 188.745 100.163C185.879 98.661 183.194 96.8192 180.759 94.6799C179.235 95.2036 177.733 95.7718 176.233 96.3863ZM165.973 61.424C165.973 59.8992 166.041 58.3976 166.178 56.9192C165.2 56.8729 164.244 56.6698 163.698 56.0553C163.13 55.4176 163.608 54.7354 163.244 54.03C162.79 53.1875 162.243 52.9612 162.129 51.9833C162.061 51.4151 162.493 51.2103 162.721 50.5957C162.902 50.1184 162.835 49.2081 162.879 48.8216C163.016 47.6157 162.516 47.0706 162.402 47.32C162.174 47.7742 161.81 49.3221 161.31 51.05C161.06 51.8693 159.969 52.3912 159.785 51.5273C159.671 51.0268 160.218 49.7977 160.218 48.843L160.946 46.0446L160.856 44.1102C158.83 43.542 156.784 42.9506 154.737 42.2898C150.346 48.0218 147.844 54.5287 147.844 61.4204C147.844 61.6021 147.867 61.8069 147.867 61.9886H165.973V61.424ZM194.135 91.837C193.998 91.609 193.862 91.3828 193.725 91.1548C189.972 91.8602 186.219 92.8381 182.466 94.0885C184.74 95.9998 187.197 97.6368 189.837 98.9798C189.974 97.8202 189.746 96.0675 190.155 96.6143C192.453 99.5267 194.977 99.2987 195.569 100.027C196.342 101.028 198.002 100.118 199.822 99.0261C197.729 97.0685 195.818 94.6354 194.135 91.837ZM167.566 49.4575C167.065 49.5715 166.497 49.7532 166.11 50.186C165.542 50.8237 165.496 52.2327 165.451 52.7564C165.384 53.5989 165.929 54.2811 166.429 54.9402C166.702 53.0752 167.065 51.2316 167.566 49.4575ZM160.786 42.3147C160.763 41.8819 161.491 41.8142 161.696 41.4045C161.969 40.8576 161.787 39.9937 162.311 39.6072C162.607 39.3792 163.426 39.5164 163.652 39.2652C164.562 38.3104 164.381 38.355 164.267 38.2641C163.88 37.9453 163.038 37.7405 162.902 37.3771C162.56 36.5577 163.88 35.6475 164.448 34.5342C164.607 34.1922 164.448 33.6008 164.402 33.0789C161.08 35.4676 158.193 38.1288 155.804 40.9948C157.464 41.5185 159.126 42.019 160.786 42.4732V42.3147ZM167.542 61.9922H168.725C169.112 61.5593 169.545 61.3099 169.293 60.6509C169.112 60.1504 169.112 59.1725 169.044 58.7165C169.021 58.4671 168.02 57.9665 167.68 57.7154C167.589 58.9445 167.542 60.1717 167.542 61.424C167.542 61.6056 167.542 61.8105 167.542 61.9922ZM261.309 42.247C256.714 43.6809 252.12 44.9314 247.547 46.0001C247.706 46.2958 247.706 46.6592 247.615 47.0243C249.14 51.5291 249.957 56.3741 249.957 61.424V61.9922H268.224C268.224 61.8105 268.247 61.6056 268.247 61.424C268.247 54.5074 265.721 47.9791 261.309 42.247ZM287.212 61C287.212 94.231 251.753 121.169 208.012 121.169C164.272 121.169 128.813 94.231 128.813 61C128.813 27.769 164.272 0.831177 208.012 0.831177C251.753 0.831177 287.212 27.769 287.212 61ZM281.418 53.9623L274.093 55.3962L274.389 56.8515L281.713 55.4407L281.418 53.9623ZM274.98 45.3179C273.865 45.7044 273.092 46.2958 272.659 47.1383C272.226 47.9577 272.182 48.8216 272.501 49.755C272.75 50.528 273.16 51.0749 273.707 51.4383C274.252 51.8016 274.936 51.962 275.777 51.9156L275.73 50.3695C275.185 50.4372 274.729 50.3695 274.41 50.1878C274.068 50.0061 273.842 49.7105 273.705 49.3239C273.523 48.8234 273.568 48.346 273.842 47.89C274.115 47.4358 274.683 47.0475 275.572 46.7518C276.412 46.4561 277.096 46.4098 277.574 46.6146C278.051 46.7963 278.393 47.1615 278.575 47.6834C278.712 48.0699 278.712 48.4333 278.598 48.7521C278.461 49.0941 278.235 49.3667 277.893 49.5715L278.712 50.8683C279.236 50.5263 279.576 50.1397 279.781 49.7087C280.1 49.0033 280.1 48.2071 279.804 47.3432C279.462 46.3653 278.871 45.6831 278.03 45.2965C277.164 44.9082 276.14 44.9082 274.98 45.3179ZM269.588 36.2406C268.611 36.8997 268.019 37.6959 267.814 38.6061C267.633 39.5395 267.837 40.448 268.452 41.3813C269.067 42.2915 269.84 42.8152 270.773 42.9738C271.706 43.1323 272.661 42.8829 273.662 42.2239C274.663 41.5416 275.278 40.7454 275.459 39.812C275.664 38.8787 275.459 37.9702 274.845 37.06C274.503 36.5363 274.116 36.1498 273.685 35.8773C273.366 35.6724 273.003 35.5353 272.593 35.4676C272.184 35.3767 271.774 35.3767 271.364 35.4676C270.818 35.5584 270.226 35.8096 269.588 36.2406ZM261.854 32.3735C261.877 33.0326 262.218 33.7148 262.855 34.3988C263.288 34.8762 263.742 35.1951 264.152 35.3999C264.585 35.5816 265.016 35.6493 265.449 35.5584C265.882 35.4907 266.268 35.309 266.587 35.0116C266.929 34.6927 267.132 34.3525 267.246 33.9874C267.337 33.624 267.337 33.2375 267.246 32.8723C267.132 32.4858 266.883 31.9621 266.518 31.303C266.154 30.6653 265.949 30.2111 265.949 29.9617C265.926 29.7569 265.996 29.5984 266.108 29.4844C266.266 29.3472 266.427 29.3027 266.608 29.3472C266.927 29.3935 267.223 29.5966 267.519 29.9154C267.814 30.2343 267.951 30.5068 267.973 30.7793C267.996 31.0519 267.905 31.3475 267.654 31.6432L268.723 32.712C269.223 32.2115 269.451 31.6664 269.428 31.0287C269.405 30.4142 269.065 29.7551 268.427 29.0729C268.041 28.6632 267.654 28.3675 267.244 28.1858C266.835 28.0041 266.448 27.9365 266.062 28.0041C265.675 28.0718 265.333 28.2535 265.061 28.5047C264.628 28.9144 264.423 29.4149 264.423 30.0294C264.446 30.4623 264.651 31.0536 265.061 31.7804C265.356 32.3255 265.561 32.7138 265.629 32.8723C265.743 33.1217 265.787 33.3265 265.766 33.4868C265.743 33.6454 265.675 33.7825 265.538 33.9197C265.333 34.1014 265.084 34.169 264.765 34.1245C264.446 34.1014 264.127 33.8965 263.787 33.5331C263.491 33.2143 263.333 32.8509 263.31 32.5089C263.286 32.1455 263.424 31.7804 263.742 31.3707L262.627 30.3928C262.082 31.0554 261.833 31.6913 261.854 32.3735ZM251.596 25.1399L256.01 28.0059L256.692 26.9372L253.554 24.9119L256.897 19.748L255.623 18.9287L251.596 25.1399ZM243.019 20.6369L244.453 21.3423L245.75 20.0918L248.411 21.3886L248.253 23.209L249.731 23.9144L250.322 15.929L248.889 15.2237L243.019 20.6369ZM236.218 17.1563C236.605 17.9989 237.264 18.5902 238.197 18.9073C238.947 19.1567 239.653 19.203 240.267 18.9981C240.882 18.7933 241.427 18.3391 241.904 17.6337L240.675 16.7235C240.379 17.2009 240.061 17.5197 239.697 17.6569C239.355 17.8154 238.992 17.8154 238.605 17.68C238.082 17.5215 237.741 17.1795 237.56 16.679C237.355 16.2016 237.423 15.5194 237.718 14.6323C238.014 13.7898 238.377 13.2215 238.833 12.9722C239.288 12.6996 239.788 12.6533 240.312 12.835C240.675 12.9722 240.971 13.1984 241.154 13.4941C241.359 13.7898 241.427 14.1531 241.382 14.5397L242.907 14.6768C242.953 14.0623 242.861 13.5386 242.635 13.1307C242.271 12.4485 241.657 11.948 240.793 11.6523C239.815 11.3103 238.905 11.3566 238.085 11.8108C237.244 12.2436 236.63 13.0399 236.22 14.2226C235.832 15.3359 235.855 16.3138 236.218 17.1563ZM231.008 16.5649L232.464 16.9515L234.398 9.74098L232.943 9.35445L231.008 16.5649ZM222.319 14.7445L223.798 14.9939L224.366 11.7859L227.278 12.3096L226.71 15.5176L228.189 15.767L229.485 8.44245L228.007 8.16992L227.506 11.0591L224.594 10.5586L225.095 7.66939L223.616 7.39686L222.319 14.7445ZM213.948 13.8343L215.449 13.9715L215.677 11.1731L216.655 11.264C217.337 11.3103 217.861 11.3316 218.224 11.2871C218.497 11.2408 218.771 11.15 219.021 10.9914C219.293 10.8543 219.544 10.628 219.726 10.3324C219.931 10.0367 220.045 9.65014 220.068 9.19414C220.136 8.60276 220.022 8.10223 219.772 7.7157C219.523 7.30601 219.181 7.03349 218.771 6.89633C218.499 6.80549 217.907 6.71464 216.997 6.62379L214.585 6.41896L213.948 13.8343ZM204.211 13.6758L205.827 13.6526L206.395 11.9462L209.375 11.8785L210.057 13.5618L211.694 13.5386L208.577 6.14642L206.985 6.16958L204.211 13.6758ZM195.478 6.91949L196.115 14.3348L197.617 14.1977L197.344 11.1036L197.663 11.0805C198.005 11.0342 198.255 11.0573 198.413 11.0805C198.572 11.1268 198.732 11.2176 198.891 11.353C199.049 11.4902 199.345 11.8304 199.778 12.3772L201.007 13.902L202.804 13.7435L201.758 12.379C201.349 11.8322 201.03 11.4456 200.804 11.2408C200.576 11.036 200.28 10.8543 199.94 10.6957C200.599 10.5372 201.055 10.2629 201.351 9.87636C201.646 9.48983 201.783 9.01246 201.737 8.46561C201.691 8.01139 201.555 7.64623 201.304 7.30602C201.055 6.98717 200.757 6.78233 200.371 6.69148C200.007 6.57748 199.416 6.55433 198.62 6.62379L195.478 6.91949ZM185.695 12.4022C185.832 13.0844 186.105 13.7221 186.491 14.2671C186.901 14.7908 187.425 15.1774 188.061 15.3822C188.675 15.5871 189.381 15.6316 190.154 15.473C190.745 15.359 191.313 15.1311 191.86 14.7908C192.407 14.4488 192.793 14.0855 193.066 13.7452L192.498 10.8329L189.313 11.4474L189.541 12.6765L191.247 12.3345L191.429 13.2679C191.224 13.4959 190.996 13.7007 190.7 13.8824C190.405 14.0409 190.109 14.1781 189.813 14.2244C189.176 14.3616 188.631 14.2475 188.153 13.8824C187.699 13.519 187.38 12.9045 187.198 12.0406C187.04 11.2212 187.131 10.5853 187.427 10.1061C187.722 9.62877 188.2 9.30992 188.837 9.19592C189.27 9.10508 189.633 9.14961 189.975 9.28677C190.294 9.4453 190.544 9.69646 190.725 10.0367L192.136 9.46846C191.864 8.83077 191.431 8.37654 190.839 8.08086C190.248 7.80832 189.498 7.76202 188.609 7.92233C187.904 8.05949 187.336 8.30886 186.926 8.6277C186.358 9.06054 185.993 9.60561 185.788 10.2647C185.581 10.9237 185.537 11.6273 185.695 12.4022ZM176.14 15.3359C176.504 16.451 177.074 17.2472 177.915 17.7014C178.734 18.1556 179.666 18.2251 180.736 17.9062C181.782 17.5874 182.51 16.996 182.943 16.1766C183.376 15.3341 183.397 14.3348 183.057 13.1735C182.694 12.0139 182.102 11.2176 181.283 10.7403C180.44 10.2861 179.509 10.2166 178.461 10.5354C177.87 10.7171 177.393 10.9683 177.006 11.2853C176.711 11.5347 176.482 11.8536 176.278 12.2187C176.096 12.5821 175.959 12.9918 175.914 13.4015C175.845 13.9483 175.937 14.6074 176.14 15.3359ZM166.792 15.4036L169.819 22.2044L175.006 19.9066L174.482 18.747L170.683 20.4534L169.863 18.5885L173.276 17.0637L172.776 15.9255L169.363 17.4502L168.681 15.9486L172.343 14.3117L171.842 13.1521L166.792 15.4036ZM158.784 21.8196C158.83 22.5019 159.033 23.1609 159.443 23.8449C159.806 24.4594 160.262 24.9368 160.831 25.3234C161.399 25.6867 162.013 25.8702 162.672 25.8471C163.332 25.8239 164.014 25.619 164.675 25.2094C165.198 24.8905 165.652 24.4808 166.062 23.9803C166.449 23.4798 166.7 23.0024 166.812 22.5695L165.287 20.0437L162.512 21.7039L163.15 22.7726L164.628 21.8855L165.106 22.7049C165.015 22.9775 164.856 23.25 164.651 23.5011C164.447 23.7737 164.197 24.0017 163.923 24.1602C163.378 24.479 162.831 24.5699 162.263 24.3882C161.695 24.2065 161.194 23.7505 160.738 22.9774C160.305 22.2721 160.147 21.6575 160.284 21.0893C160.398 20.5443 160.738 20.0883 161.308 19.748C161.671 19.52 162.037 19.4292 162.4 19.4524C162.742 19.4987 163.059 19.634 163.355 19.9066L164.493 18.8824C163.992 18.3818 163.447 18.0861 162.786 18.0185C162.149 17.9721 161.422 18.177 160.626 18.6561C160.034 19.0195 159.58 19.4292 159.306 19.8852C158.921 20.4766 158.763 21.1374 158.784 21.8196ZM146.456 30.3714L151.62 35.717L152.644 34.7622L149.254 31.2585L154.805 32.6692L155.873 31.6236L150.71 26.255L149.709 27.2329L153.166 30.8043L147.502 29.349L146.456 30.3714ZM141.406 37.0832L145.955 43.6578L146.866 42.3379L145.797 40.8826L147.457 38.4031L149.231 38.8128L150.141 37.4483L142.293 35.765L141.406 37.0832ZM137.835 43.7023L144.545 46.978L145.204 45.6136L138.494 42.361L137.835 43.7023ZM135.195 52.0047C135.241 52.4375 135.423 52.8009 135.672 53.0966C135.945 53.3923 136.264 53.574 136.627 53.688C137.195 53.8251 137.742 53.7343 138.243 53.3923C138.606 53.1643 138.993 52.6869 139.402 51.9584C139.721 51.3902 139.926 51.025 140.017 50.8665C140.175 50.6385 140.336 50.5031 140.471 50.4336C140.629 50.366 140.79 50.366 140.948 50.4105C141.221 50.4782 141.403 50.6599 141.54 50.9342C141.677 51.2299 141.698 51.6164 141.563 52.0724C141.449 52.5266 141.244 52.8455 140.948 53.0503C140.653 53.2551 140.266 53.3228 139.766 53.2783L139.516 54.7336C140.359 54.8476 141.041 54.7336 141.586 54.3471C142.154 53.9837 142.541 53.346 142.792 52.4358C142.95 51.7981 142.997 51.253 142.95 50.7988C142.883 50.3214 142.701 49.9349 142.404 49.5929C142.108 49.2741 141.745 49.0692 141.335 48.9552C140.881 48.818 140.471 48.818 140.106 48.932C139.742 49.046 139.447 49.2277 139.172 49.5234C138.9 49.8191 138.581 50.2965 138.218 50.9573C137.876 51.6164 137.58 52.0261 137.398 52.1632C137.24 52.2772 137.056 52.3004 136.898 52.2541C136.716 52.2078 136.579 52.0955 136.511 51.9121C136.397 51.6164 136.397 51.2744 136.511 50.8433C136.625 50.4336 136.784 50.1611 137.012 50.0008C137.217 49.8423 137.512 49.7728 137.899 49.8191L138.241 48.3407C137.559 48.1821 136.967 48.273 136.467 48.6364C135.943 48.9784 135.556 49.6143 135.307 50.5245C135.172 51.0731 135.127 51.5736 135.195 52.0047ZM134.149 61.9013C134.308 62.311 134.536 62.6299 134.878 62.8561C135.197 63.0841 135.537 63.1981 135.923 63.2195C136.515 63.2426 137.015 63.0378 137.448 62.5818C137.744 62.2629 138.016 61.7179 138.244 60.9216C138.426 60.284 138.54 59.8974 138.608 59.7157C138.699 59.4664 138.813 59.2829 138.95 59.192C139.064 59.1012 139.222 59.0549 139.404 59.0549C139.677 59.0549 139.905 59.192 140.109 59.4414C140.314 59.6908 140.405 60.056 140.382 60.5565C140.359 61.0107 140.223 61.3759 139.995 61.6252C139.746 61.8978 139.381 62.0581 138.903 62.1258L138.994 63.581C139.814 63.5134 140.473 63.239 140.929 62.7617C141.383 62.2611 141.611 61.5558 141.657 60.601C141.68 59.9633 141.59 59.4183 141.429 58.9854C141.271 58.5312 140.996 58.1892 140.633 57.9398C140.27 57.6905 139.883 57.5533 139.45 57.5533C138.973 57.5301 138.586 57.621 138.244 57.8027C137.926 57.9844 137.676 58.2569 137.471 58.5989C137.266 58.9409 137.085 59.486 136.88 60.1913C136.675 60.9199 136.493 61.3741 136.335 61.5558C136.198 61.7143 136.039 61.7838 135.881 61.7838C135.676 61.7606 135.517 61.6929 135.426 61.5112C135.245 61.2619 135.177 60.9199 135.177 60.487C135.2 60.0542 135.291 59.7371 135.473 59.5323C135.654 59.3274 135.927 59.2134 136.315 59.1457L136.292 57.6441C135.61 57.6441 135.063 57.8721 134.632 58.3264C134.199 58.8037 133.973 59.486 133.95 60.4193C133.921 60.9911 133.989 61.4916 134.149 61.9013ZM135.947 73.98L139.814 73.0252C140.61 72.8204 141.224 72.6156 141.611 72.4107C141.86 72.2736 142.111 72.0919 142.316 71.8193C142.498 71.5468 142.635 71.2048 142.726 70.8183C142.794 70.4086 142.726 69.8635 142.567 69.1813C142.43 68.6131 142.225 68.1571 141.999 67.84C141.771 67.5212 141.499 67.295 141.203 67.1346C140.907 66.9975 140.565 66.9298 140.179 66.9298C139.792 66.9529 139.178 67.067 138.314 67.2718L134.514 68.2265L134.878 69.6818L138.882 68.6808C139.45 68.5436 139.86 68.4528 140.133 68.4314C140.382 68.4314 140.61 68.4991 140.838 68.6594C141.066 68.8411 141.224 69.1136 141.315 69.5464C141.429 69.9561 141.429 70.2964 141.292 70.5707C141.178 70.8432 140.973 71.048 140.701 71.1852C140.519 71.276 140.133 71.39 139.495 71.5486L135.581 72.5265L135.947 73.98ZM146.887 80.3266L146.249 78.9621L143.428 80.282L143.291 80.0095C143.154 79.6907 143.063 79.4627 143.041 79.281C143.041 79.1225 143.064 78.939 143.132 78.7359C143.223 78.5542 143.428 78.1677 143.791 77.5763L144.815 75.893L144.042 74.2561L143.109 75.7114C142.746 76.2796 142.494 76.7124 142.38 76.9849C142.266 77.2806 142.176 77.5995 142.152 77.986C141.789 77.4409 141.379 77.0758 140.902 76.9404C140.425 76.8033 139.947 76.8496 139.447 77.0776C139.037 77.2593 138.741 77.5318 138.513 77.8738C138.285 78.2158 138.195 78.5792 138.241 78.9657C138.264 79.3522 138.446 79.8991 138.786 80.6258L140.127 83.4919L146.887 80.3266ZM153.508 90.7683C153.508 89.7904 152.712 88.9941 151.711 88.9941H151.664H151.618H151.572H151.525H151.479H151.433L151.386 89.0173H151.34L151.294 89.0405H151.248L151.224 89.0636H151.178L151.132 89.0868H151.085L151.039 89.1099L150.993 89.1331L150.97 89.1562H150.923L150.877 89.1794L150.854 89.2025L150.808 89.2257L150.761 89.2489L150.738 89.272L150.692 89.2952L150.669 89.3183L150.622 89.3415L150.599 89.3646L150.553 89.411L150.53 89.4341L150.483 89.4573L150.46 89.4804L150.414 89.5267L150.391 89.5499L150.368 89.5731L150.344 89.6194L150.298 89.6425L150.275 89.6888L150.252 89.712L150.229 89.7583L150.205 89.7814L150.182 89.8278L150.159 89.8509L150.136 89.8972L150.113 89.9435L150.09 89.9667L150.067 90.013L150.043 90.0593V90.1056L150.02 90.1288L149.997 90.1751V90.2214L149.974 90.2677L149.951 90.314V90.3603L149.928 90.3835V90.4298V90.4761L149.904 90.5224V90.5688V90.6151V90.6614L149.881 90.7077V90.754V90.8003C149.881 91.8014 150.701 92.5976 151.679 92.5976H151.725H151.771H151.818H151.864L151.91 92.5745H151.956H152.003L152.049 92.5513H152.095H152.142L152.188 92.5281H152.234L152.257 92.505L152.304 92.4818H152.35L152.396 92.4587L152.443 92.4355L152.466 92.4124L152.512 92.3892H152.559L152.582 92.366L152.628 92.3429L152.674 92.3197L152.697 92.2966L152.744 92.2734L152.767 92.2271L152.813 92.204L152.836 92.1808L152.883 92.1576L152.906 92.1345L152.929 92.0882L152.975 92.065L152.998 92.0419L153.022 91.9955L153.068 91.9724L153.091 91.9261L153.114 91.9029L153.137 91.8566L153.161 91.8334L153.184 91.7871L153.207 91.764L153.23 91.7177L153.253 91.6713L153.276 91.6482L153.3 91.6019L153.323 91.5556L153.346 91.5324L153.369 91.4861V91.4398L153.392 91.3935L153.415 91.3472V91.324L153.438 91.2777V91.2314L153.462 91.1851V91.1388L153.485 91.0924V91.0461V90.9998V90.9535L153.508 90.9072V90.8609V90.8146V90.7683ZM162.97 100.004L160.286 98.2531L161.264 96.7283L164.381 98.7304L165.086 97.6385L160.651 94.7725L156.511 101.278L157.831 102.12L159.582 99.3681L162.29 101.098L162.97 100.004ZM171.409 101.755C171.067 100.845 170.408 100.139 169.384 99.6621C168.816 99.3895 168.269 99.2524 167.747 99.2524C167.361 99.2292 166.974 99.2987 166.565 99.4572C166.155 99.6157 165.791 99.8437 165.473 100.116C165.04 100.503 164.653 101.05 164.334 101.776C163.834 102.891 163.72 103.914 164.039 104.824C164.381 105.734 165.04 106.44 166.085 106.917C167.11 107.394 168.064 107.462 168.975 107.099C169.885 106.735 170.59 106.007 171.112 104.869C171.637 103.734 171.728 102.688 171.409 101.755ZM178.757 108.034L180.168 104.235L178.734 103.688L177.232 107.692C177.028 108.26 176.846 108.67 176.709 108.898C176.572 109.126 176.367 109.284 176.094 109.375C175.822 109.466 175.48 109.422 175.07 109.261C174.66 109.124 174.388 108.898 174.206 108.647C174.048 108.374 174.001 108.078 174.048 107.76C174.071 107.555 174.206 107.145 174.434 106.531L175.912 102.617L174.457 102.072L173.023 105.916C172.704 106.735 172.523 107.35 172.478 107.804C172.432 108.1 172.455 108.442 172.569 108.759C172.683 109.101 172.888 109.397 173.184 109.692C173.479 109.988 173.957 110.284 174.639 110.535C175.207 110.763 175.708 110.854 176.117 110.83C176.527 110.83 176.867 110.74 177.186 110.581C177.482 110.399 177.731 110.148 177.936 109.831C178.166 109.512 178.438 108.898 178.757 108.034ZM187.902 106.146L186.491 105.804L185.285 110.809L183.444 105.054L181.988 104.691L180.168 112.197L181.579 112.539L182.761 107.647L184.582 113.265L186.083 113.652L187.902 106.146ZM195.909 109.785C195.841 109.284 195.659 108.83 195.408 108.444C195.136 108.034 194.794 107.738 194.384 107.533C194.065 107.375 193.588 107.261 192.973 107.147L190.175 106.669L188.878 114.29L191.767 114.767C192.314 114.881 192.792 114.904 193.132 114.835C193.609 114.767 193.996 114.63 194.315 114.425C194.724 114.129 195.064 113.743 195.339 113.219C195.588 112.786 195.749 112.264 195.863 111.627C195.978 110.923 196 110.309 195.909 109.785ZM203.825 108.351L198.16 107.988L197.66 115.699L203.483 116.062L203.55 114.765L199.297 114.493L199.411 112.4L203.255 112.649L203.346 111.352L199.502 111.103L199.616 109.397L203.732 109.646L203.825 108.351ZM212.378 112.311C212.378 111.582 212.287 110.991 212.129 110.49C211.947 109.99 211.696 109.58 211.379 109.24C211.06 108.898 210.674 108.672 210.219 108.534C209.877 108.444 209.4 108.397 208.764 108.397L205.943 108.42L205.989 116.131H208.901C209.469 116.131 209.925 116.064 210.266 115.95C210.72 115.791 211.085 115.586 211.334 115.335C211.698 114.972 211.972 114.516 212.154 113.971C212.311 113.493 212.378 112.947 212.378 112.311ZM220.59 115.54L219.747 107.85L218.201 108.032L219.042 115.699L220.59 115.54ZM229.257 114.085L227.756 106.509L226.345 106.805L227.346 111.855L223.251 107.419L221.773 107.715L223.297 115.291L224.708 115.018L223.707 110.059L227.733 114.404L229.257 114.085ZM239.334 111.445L237.036 104.03L235.898 104.393C235.875 104.894 235.716 105.371 235.374 105.848C235.055 106.326 234.736 106.668 234.396 106.917L234.806 108.191C235.421 107.736 235.921 107.19 236.284 106.554L237.921 111.876L239.334 111.445ZM246.341 106.351C246.183 105.941 245.932 105.645 245.613 105.417C245.271 105.189 244.884 105.075 244.43 105.098C244.679 104.826 244.84 104.53 244.907 104.211C244.975 103.869 244.931 103.529 244.793 103.21C244.589 102.663 244.225 102.323 243.702 102.118C243.201 101.914 242.586 101.96 241.927 102.256C241.245 102.528 240.789 102.915 240.563 103.415C240.335 103.916 240.335 104.439 240.54 104.961C240.677 105.28 240.859 105.529 241.131 105.734C241.404 105.916 241.746 106.03 242.155 106.03C241.813 106.372 241.61 106.759 241.564 107.145C241.496 107.555 241.541 107.941 241.701 108.328C241.997 109.033 242.474 109.487 243.135 109.669C243.703 109.851 244.318 109.783 244.956 109.511C245.661 109.238 246.115 108.805 246.366 108.214C246.614 107.624 246.614 107.01 246.341 106.351ZM252.255 104.188L253.098 103.779L252.529 102.619L251.687 103.029L249.526 98.6378L248.411 99.1829L247.592 105.075L248.16 106.235L250.981 104.824L251.664 106.235L252.937 105.597L252.255 104.188ZM258.783 100.891C258.807 100.277 258.646 99.7084 258.306 99.1615C257.896 98.5238 257.373 98.1373 256.714 98.0019C256.076 97.8434 255.484 97.9556 254.939 98.3208C254.667 98.5025 254.439 98.7536 254.234 99.0707L253.71 97.8416L256.031 96.3169L255.281 95.1573L252.029 97.2948L253.598 101.071L254.69 100.57C254.758 100.07 254.986 99.7066 255.328 99.4786C255.623 99.2737 255.896 99.2292 256.215 99.32C256.51 99.3877 256.806 99.6389 257.057 100.025C257.33 100.458 257.444 100.822 257.421 101.164C257.374 101.482 257.216 101.732 256.966 101.892C256.738 102.051 256.489 102.097 256.217 102.051C255.944 102.004 255.693 101.846 255.467 101.596L254.328 102.53C254.761 103.03 255.262 103.303 255.853 103.372C256.421 103.463 257.013 103.305 257.604 102.895C258.329 102.414 258.739 101.732 258.783 100.891ZM270.703 61.424C270.703 49.2758 263.628 38.3122 252.187 30.4195C240.859 22.5945 225.253 17.7495 208.057 17.7495C190.838 17.7495 175.232 22.5945 163.926 30.4195C152.462 38.3122 145.387 49.2776 145.387 61.424C145.387 73.5703 152.462 84.5357 163.926 92.4515C175.232 100.253 190.838 105.1 208.057 105.1C232.875 105.098 270.703 91.837 270.703 61.424ZM266.405 87.8328C265.404 87.8328 264.608 88.629 264.608 89.63C264.608 90.6079 265.404 91.4273 266.405 91.4273H266.452L266.498 91.4042H266.544H266.591H266.614H266.66L266.706 91.381H266.753H266.799L266.845 91.3579H266.892L266.938 91.3347C268.589 90.7683 268.885 87.8328 266.405 87.8328ZM278.575 77.9148L273.502 78.5738L270.659 77.2325L270.021 78.597L272.864 79.9169L275.616 84.2382L276.345 82.6689L274.41 79.8474L277.823 79.5054L278.575 77.9148ZM281.282 69.2935L280.053 68.9978L279.506 71.1353L273.502 69.6337L273.138 71.1122L279.143 72.6138L278.619 74.7513L279.848 75.0469L281.282 69.2935ZM281.895 65.4941L282.077 59.9669L274.638 59.7175L274.433 65.3819L275.684 65.4282L275.842 61.2654L277.868 61.3331L277.731 65.063L278.981 65.1094L279.118 61.3794L280.755 61.4257L280.618 65.4514L281.895 65.4941ZM249.913 63.5615H268.156C267.656 70.136 264.904 76.3223 260.399 81.7373C256.942 80.6686 253.484 79.712 250.027 78.8481C250.094 78.7573 250.141 78.6665 250.164 78.5988C250.278 78.1659 249.801 77.9397 249.619 77.5746C249.482 77.2789 249.687 76.846 249.619 76.5966C249.346 75.5511 248.527 74.4591 248.368 73.4581L248.345 73.4349C248.55 72.7296 248.732 72.0242 248.89 71.2974V71.2511C248.958 71.0231 249.004 70.8183 249.027 70.6597C249.255 69.5447 249.437 68.4296 249.573 67.3163L249.687 67.384C250.324 67.7706 250.755 67.6797 251.393 68.1802C251.894 68.5899 252.531 68.1339 252.871 67.726C253.19 67.3395 252.257 66.7018 252.303 66.2013C252.417 65.3819 253.281 64.6551 252.781 64.2223C252.371 63.8589 251.756 63.9943 251.188 63.9943C250.688 63.9943 250.233 63.8126 249.891 64.0175L249.913 63.5615ZM253.007 69.3612C252.779 69.0887 252.529 69.1332 252.164 69.1332C251.869 69.1332 251.959 69.11 251.822 69.2472C251.708 69.3612 251.231 68.9284 251.049 69.224C250.639 69.7477 250.8 70.2483 250.8 70.8396C250.8 70.9073 250.777 71.2493 250.8 71.2939C250.823 71.3402 250.867 71.431 250.914 71.5219C251.005 71.6359 251.072 72.4766 251.233 72.5906C251.37 72.7046 251.528 72.6138 251.915 72.6138C252.325 72.6138 251.892 72.0687 252.278 71.9547C252.893 71.773 253.074 70.8165 253.074 70.0434C253.074 69.7032 253.121 69.4984 253.007 69.3612ZM233.376 96.1583C236.423 95.7041 239.199 96.0906 239.45 96.568C239.883 96.3863 240.292 96.2046 240.723 96.0212C239.04 95.3621 237.38 94.7476 235.697 94.2007C234.945 94.8847 234.172 95.5456 233.376 96.1583ZM221.887 90.7896C221.705 91.153 221.5 91.495 221.295 91.8352C220.022 93.9514 218.611 95.8609 217.109 97.4996C219.339 97.5459 222.115 96.3845 224.161 95.8626C225.64 95.4761 226.869 97.1131 229.621 96.9314C231.146 95.9303 232.601 94.8384 233.988 93.6557C229.94 92.3821 225.914 91.4505 221.887 90.7896ZM220.25 90.5403C216.429 89.9952 212.629 89.7209 208.83 89.7209C204.325 89.7209 199.845 90.1074 195.364 90.8591L195.478 91.0176C197.161 93.8605 199.117 96.2955 201.233 98.2068C202.325 97.5922 203.417 97.0472 204.395 96.9332C204.986 96.8869 208.467 98.2745 210.399 97.5477C212.56 96.7515 213.402 95.0914 213.721 95.2499C214.063 96.1833 214.632 96.796 215.314 97.138C216.997 95.4084 218.566 93.3618 219.954 91.0194C220.045 90.8591 220.136 90.6988 220.25 90.5403ZM248.479 80.0754C252.073 80.9393 255.689 81.9172 259.284 83.0091C256.872 85.6935 254.006 88.1961 250.777 90.4245C248.297 92.1309 245.568 93.7002 242.679 95.111C240.768 94.3379 238.88 93.6325 236.992 92.9735C237.334 92.6546 237.651 92.3144 237.993 91.9724C240.335 89.4929 242.383 86.7177 244.09 83.7145C244.362 83.5097 244.635 83.3048 245 83.1C246.251 82.4409 246.206 82.9183 247.389 82.0758C247.775 81.7801 247.503 81.0515 247.934 80.551C248.092 80.3729 248.274 80.2126 248.479 80.0754ZM249.003 85.9001C247.82 87.0829 246.25 86.992 245.021 88.743C245.021 89.2667 246.5 88.971 246.842 88.743C247.547 88.3101 248.048 88.3333 248.662 87.7188C249.209 87.1505 251.256 85.0113 251.37 83.9888C251.416 83.6023 251.256 82.8506 251.028 83.0786C250.276 83.8303 249.866 85.0362 249.003 85.9001ZM176.778 37.3112C176.983 37.4252 178.461 36.0821 178.894 35.6742C179.167 35.4017 179.167 34.2866 179.395 33.8538C179.849 33.0344 180.464 32.8295 180.601 32.5802C180.738 32.2845 180.647 31.0786 183.399 31.2834C182.626 31.034 181.853 30.7829 181.078 30.5104C180.829 31.0554 180.123 31.556 179.076 31.9656L178.962 32.0796C178.871 32.2845 178.894 32.6265 178.666 32.671C178.552 32.6942 178.438 32.7387 178.303 32.8082C177.712 33.4459 177.143 34.1281 176.62 34.8103C176.734 35.1523 176.983 35.448 176.892 35.8114C176.687 36.5595 176.119 36.9015 176.778 37.3112ZM179.917 27.9614C179.53 28.0077 178.438 27.8474 178.28 27.8242C178.939 28.0968 179.621 28.3479 180.282 28.5741C183.148 26.0038 186.333 23.8431 189.767 22.1599C186.058 22.9792 182.51 24.0248 179.167 25.277C179.439 25.5727 179.691 25.9147 180.009 26.3226C180.168 26.4812 181.01 26.6415 181.148 26.8463C181.283 27.0512 180.759 27.8242 179.917 27.9614ZM201.937 24.048C203.734 22.5232 205.69 21.3868 207.715 20.6583C212.425 22.3416 216.655 26.2995 219.954 31.8267L220.112 32.0992C219.817 32.3718 219.635 32.5766 219.202 32.5321C218.611 32.4858 218.816 31.3262 218.907 30.9628C219.293 29.7337 218.157 30.2129 217.156 29.6892C216.678 29.4612 217.451 28.6205 217.018 28.4388C216.427 28.1662 215.449 27.5285 214.881 27.8474C214.744 27.9151 214.653 28.0522 214.562 28.2339C214.152 28.4619 214.949 29.3935 214.516 29.9635C213.72 31.0786 212.946 31.898 212.946 32.3522C212.946 32.5107 213.81 32.329 214.266 31.8516C214.63 31.4651 214.585 30.806 215.109 30.5104C216.11 29.9421 216.178 30.3964 215.973 31.0554C215.882 31.3511 215.836 32.3967 214.448 33.0807C213.834 33.3995 212.401 33.4904 212.401 33.4904C212.287 33.5135 212.106 33.5812 211.878 33.6275C211.128 33.6507 210.399 33.6739 209.648 33.6952C209.738 33.4904 209.99 33.241 210.307 33.0575C210.693 32.8082 211.489 33.0807 211.671 32.8759C212.514 31.9211 211.126 30.7384 210.011 30.7152C208.919 30.692 208.465 30.4427 207.713 31.2157C207.031 31.8748 207.759 32.2845 206.826 32.2168C206.507 32.1936 206.577 31.3974 206.235 31.262C205.962 31.1712 205.848 31.7626 205.415 32.012C205.12 32.1705 204.505 31.898 204.277 32.1028C203.914 32.4448 204.277 32.785 203.8 33.3764L203.663 33.5135C200.797 33.3319 197.931 33.013 195.065 32.5125L195.246 32.1936C195.679 32.1473 196.18 32.1936 196.906 32.2168C197.384 32.2399 197.749 31.7839 198.112 31.7839C199.705 31.8303 200.364 32.2168 200.478 31.9656C200.545 31.7376 199.863 31.2157 200.932 31.0554C201.432 30.9877 200.613 29.3045 200.795 28.8253C200.976 28.3248 202.364 28.3016 202.865 27.9382C204.115 26.9603 206.413 26.6878 205.23 26.369C202.888 25.7544 203 26.4366 202.727 25.5959C202.523 24.9137 204.844 23.1395 204.548 22.9115C204.094 22.5927 203.479 23.0487 202.727 23.5492C202.483 23.7291 202.733 24.276 201.937 24.048ZM205.463 27.4377C205.373 27.4377 205.191 27.4145 205.145 27.4377C204.986 27.5054 204.826 27.6871 204.758 27.8474C204.553 28.3479 205.1 28.4156 205.44 28.5759C205.487 28.5528 205.554 28.3034 205.622 28.2571C205.713 28.1431 205.713 28.0754 205.918 28.0291C206.213 27.9614 206.213 27.3914 206.008 27.2329C205.85 27.0975 205.645 27.4145 205.463 27.4377ZM185.423 30.2592C185.991 29.691 186.4 29.1441 186.652 29.3953C186.947 29.691 186.947 30.1684 186.833 30.6689C187.948 30.9646 189.085 31.2603 190.2 31.5114C190.496 31.2389 190.268 30.3732 190.563 30.0775C192.679 27.9614 191.313 28.5528 190.382 27.0298C189.448 25.5514 193.043 25.7099 193.704 25.3234C194.546 24.7997 196.342 24.618 196.956 24.7783C197.571 24.9368 197.002 25.4605 197.706 25.3697C197.955 25.3465 198.274 25.188 198.639 25.0063C200.504 23.0273 202.553 21.4349 204.714 20.2967C202.553 20.3644 200.437 20.5247 198.344 20.7509C192.225 22.1848 186.652 25.1185 181.988 29.1673C183.125 29.5538 184.263 29.9172 185.423 30.2592ZM210.672 20.2717C212.97 20.318 215.221 20.4766 217.451 20.726C223.844 22.1812 229.644 25.2984 234.466 29.6197C232.806 30.1434 231.167 30.5976 229.53 31.0305C229.143 30.8256 228.78 30.53 228.37 30.5976C227.961 30.644 227.006 31.3262 225.868 31.8712C224.913 32.0761 223.956 32.2578 223.025 32.4394C222.457 32.0298 222.07 31.189 221.5 31.3476L221.295 31.0055C218.361 26.141 214.744 22.411 210.672 20.2717ZM223.344 29.1887C223.502 29.3704 223.344 29.3935 223.686 29.4167C223.844 29.4398 223.844 29.5307 224.14 29.5307H225.164C225.301 29.5307 225.96 29.5984 226.051 29.5307C226.21 29.4398 225.893 29.4167 226.279 29.4167C226.689 29.4167 227.189 29.1441 227.189 28.6436C227.189 28.1431 226.984 27.9151 226.507 28.0754L225.324 28.4388C224.892 28.5759 224.915 28.1894 224.37 28.1894C224.232 28.1894 223.778 28.2357 223.687 28.1894C223.666 28.1787 223.655 28.168 223.652 28.1609C223.755 28.1164 223.636 28.1235 223.652 28.1609C223.634 28.168 223.609 28.1787 223.573 28.1894C223.369 28.2357 223.527 28.3034 223.231 28.4174C223.23 28.8021 223.16 29.007 223.344 29.1887ZM175.209 29.3935C175.414 29.5307 175.959 29.2118 176.687 28.893C175.823 28.551 174.936 28.1876 174.071 27.8011C173.912 27.8919 173.798 27.9828 173.752 28.1199C173.661 28.4388 174.48 28.9393 175.209 29.3935ZM192.565 33.8983C192.02 34.194 191.406 34.3757 190.654 34.8317C190.177 35.1505 189.995 35.7187 189.495 35.7864C188.698 35.9236 187.72 35.3767 188.061 35.2859C187.628 33.9891 187.97 33.2838 188.584 32.7387C187.834 32.557 187.083 32.3522 186.31 32.1473C186.263 32.2613 186.219 32.3753 186.219 32.443C186.014 33.8538 183.558 31.9656 182.489 33.4886C182.193 33.9215 182.193 34.4897 182.717 34.5805C183.127 34.6268 184.014 34.2171 184.377 34.3525C185.127 34.6482 185.22 35.5121 184.104 36.1266C183.786 36.2852 182.875 37.0137 183.08 37.4466C183.648 38.6061 183.967 38.9018 182.922 39.2438C182.377 39.4024 182.081 40.1772 181.671 40.3589C181.126 40.6083 180.512 40.2912 180.421 40.6777C180.262 41.4276 180.284 42.6335 179.534 42.6567C178.896 42.6799 178.784 41.7233 177.804 41.588C177.462 41.5203 176.645 42.133 176.189 42.133C174.983 42.133 174.573 44.226 173.777 45.2502C173.663 45.3874 173.549 45.4782 173.458 45.5922C178.258 46.5701 183.057 47.3663 187.881 47.9346C188.903 42.7476 190.496 38.0148 192.565 33.8983Z" fill="#474A51"/>
</svg>
