<svg width="24" height="24" viewBox="0 0 24 24" fill="none" xmlns="http://www.w3.org/2000/svg">
<g clip-path="url(#clip0_14_6)">
<path d="M24 12C24 18.6274 18.6274 24 12 24C5.37258 24 0 18.6274 0 12C0 5.37258 5.37258 0 12 0C18.6274 0 24 5.37258 24 12Z" fill="#FF7311"/>
<path fill-rule="evenodd" clip-rule="evenodd" d="M12 23C18.0751 23 23 18.0751 23 12C23 5.92487 18.0751 1 12 1C5.92487 1 1 5.92487 1 12C1 18.0751 5.92487 23 12 23ZM12 24C18.6274 24 24 18.6274 24 12C24 5.37258 18.6274 0 12 0C5.37258 0 0 5.37258 0 12C0 18.6274 5.37258 24 12 24Z" fill="white"/>
<path d="M10.4688 14.9429H10.9375V11.5571H10.4688C10.2099 11.5571 10 11.3473 10 11.0884V9.96875C10 9.70986 10.2099 9.5 10.4688 9.5H13.0938C13.3526 9.5 13.5625 9.70986 13.5625 9.96875V14.9429H14.0312C14.2901 14.9429 14.5 15.1527 14.5 15.4116V16.5312C14.5 16.7901 14.2901 17 14.0312 17H10.4688C10.2099 17 10 16.7901 10 16.5312V15.4116C10 15.1527 10.2099 14.9429 10.4688 14.9429ZM12.25 5C11.318 5 10.5625 5.75551 10.5625 6.6875C10.5625 7.61949 11.318 8.375 12.25 8.375C13.182 8.375 13.9375 7.61949 13.9375 6.6875C13.9375 5.75551 13.182 5 12.25 5Z" fill="white"/>
</g>
<defs>
<clipPath id="clip0_14_6">
<rect width="24" height="24" fill="white"/>
</clipPath>
</defs>
</svg>
