<svg width="80" height="55" viewBox="0 0 80 55" fill="none" xmlns="http://www.w3.org/2000/svg">
<path d="M0 41.8431C0 27.8954 2.6178 17.6144 7.8534 11C13.7173 3.66667 23.281 0 36.5445 0V17.2549C27.7487 17.2549 22.5829 21.9281 21.0471 31.2745C20.4887 34.2941 20.2094 37.817 20.2094 41.8431V55H0V41.8431ZM43.4555 41.8431C43.4555 27.8954 46.0733 17.6144 51.3089 11C57.1728 3.66667 66.7365 0 80 0V17.2549C71.2042 17.2549 66.0384 21.9281 64.5026 31.2745C63.9442 34.2941 63.6649 37.817 63.6649 41.8431V55H43.4555V41.8431Z" fill="#414962"/>
</svg>
